<svg width="191" height="40" viewBox="0 0 191 40" fill="none" xmlns="http://www.w3.org/2000/svg">
<g clip-path="url(#clip0_913_6041)">
<path d="M5.25 8C5.44891 8 5.63968 8.07902 5.78033 8.21967C5.92098 8.36032 6 8.55109 6 8.75V9.5H18V8.75C18 8.55109 18.079 8.36032 18.2197 8.21967C18.3603 8.07902 18.5511 8 18.75 8C18.9489 8 19.1397 8.07902 19.2803 8.21967C19.421 8.36032 19.5 8.55109 19.5 8.75V9.5H21C21.7956 9.5 22.5587 9.81607 23.1213 10.3787C23.6839 10.9413 24 11.7044 24 12.5V29C24 29.7956 23.6839 30.5587 23.1213 31.1213C22.5587 31.6839 21.7956 32 21 32H3C2.20435 32 1.44129 31.6839 0.87868 31.1213C0.316071 30.5587 0 29.7956 0 29V12.5C0 11.7044 0.316071 10.9413 0.87868 10.3787C1.44129 9.81607 2.20435 9.5 3 9.5H4.5V8.75C4.5 8.55109 4.57902 8.36032 4.71967 8.21967C4.86032 8.07902 5.05109 8 5.25 8ZM3 11C2.60218 11 2.22064 11.158 1.93934 11.4393C1.65804 11.7206 1.5 12.1022 1.5 12.5V29C1.5 29.3978 1.65804 29.7794 1.93934 30.0607C2.22064 30.342 2.60218 30.5 3 30.5H21C21.3978 30.5 21.7794 30.342 22.0607 30.0607C22.342 29.7794 22.5 29.3978 22.5 29V12.5C22.5 12.1022 22.342 11.7206 22.0607 11.4393C21.7794 11.158 21.3978 11 21 11H3Z" fill="#FCC134"/>
<path d="M3.75 14C3.75 13.8011 3.82902 13.6103 3.96967 13.4697C4.11032 13.329 4.30109 13.25 4.5 13.25H19.5C19.6989 13.25 19.8897 13.329 20.0303 13.4697C20.171 13.6103 20.25 13.8011 20.25 14V15.5C20.25 15.6989 20.171 15.8897 20.0303 16.0303C19.8897 16.171 19.6989 16.25 19.5 16.25H4.5C4.30109 16.25 4.11032 16.171 3.96967 16.0303C3.82902 15.8897 3.75 15.6989 3.75 15.5V14ZM16.5 19.25C16.5 19.0511 16.579 18.8603 16.7197 18.7197C16.8603 18.579 17.0511 18.5 17.25 18.5H18.75C18.9489 18.5 19.1397 18.579 19.2803 18.7197C19.421 18.8603 19.5 19.0511 19.5 19.25V20.75C19.5 20.9489 19.421 21.1397 19.2803 21.2803C19.1397 21.421 18.9489 21.5 18.75 21.5H17.25C17.0511 21.5 16.8603 21.421 16.7197 21.2803C16.579 21.1397 16.5 20.9489 16.5 20.75V19.25ZM12 19.25C12 19.0511 12.079 18.8603 12.2197 18.7197C12.3603 18.579 12.5511 18.5 12.75 18.5H14.25C14.4489 18.5 14.6397 18.579 14.7803 18.7197C14.921 18.8603 15 19.0511 15 19.25V20.75C15 20.9489 14.921 21.1397 14.7803 21.2803C14.6397 21.421 14.4489 21.5 14.25 21.5H12.75C12.5511 21.5 12.3603 21.421 12.2197 21.2803C12.079 21.1397 12 20.9489 12 20.75V19.25ZM4.5 23.75C4.5 23.5511 4.57902 23.3603 4.71967 23.2197C4.86032 23.079 5.05109 23 5.25 23H6.75C6.94891 23 7.13968 23.079 7.28033 23.2197C7.42098 23.3603 7.5 23.5511 7.5 23.75V25.25C7.5 25.4489 7.42098 25.6397 7.28033 25.7803C7.13968 25.921 6.94891 26 6.75 26H5.25C5.05109 26 4.86032 25.921 4.71967 25.7803C4.57902 25.6397 4.5 25.4489 4.5 25.25V23.75ZM9 23.75C9 23.5511 9.07902 23.3603 9.21967 23.2197C9.36032 23.079 9.55109 23 9.75 23H11.25C11.4489 23 11.6397 23.079 11.7803 23.2197C11.921 23.3603 12 23.5511 12 23.75V25.25C12 25.4489 11.921 25.6397 11.7803 25.7803C11.6397 25.921 11.4489 26 11.25 26H9.75C9.55109 26 9.36032 25.921 9.21967 25.7803C9.07902 25.6397 9 25.4489 9 25.25V23.75Z" fill="#FCC134"/>
</g>
<path d="M33.5469 8H41.6563L47.2344 21.5938H47.5156L53.0938 8H61.2031V32H54.8281V18.125H54.6406L49.2969 31.8125H45.4531L40.1094 18.0312H39.9219V32H33.5469V8ZM63.0648 32V14H69.5335V32H63.0648ZM66.2991 12.125C65.4241 12.125 64.6741 11.8359 64.0491 11.2578C63.4241 10.6797 63.1116 9.98437 63.1116 9.17187C63.1116 8.35937 63.4241 7.66406 64.0491 7.08594C64.6741 6.50781 65.4241 6.21875 66.2991 6.21875C67.182 6.21875 67.932 6.50781 68.5491 7.08594C69.1741 7.66406 69.4866 8.35937 69.4866 9.17187C69.4866 9.98437 69.1741 10.6797 68.5491 11.2578C67.932 11.8359 67.182 12.125 66.2991 12.125ZM87.9625 19.8594H82.0094C81.9782 19.4922 81.8493 19.1758 81.6227 18.9102C81.3961 18.6445 81.1032 18.4414 80.7438 18.3008C80.3922 18.1523 80.0016 18.0781 79.5719 18.0781C79.0172 18.0781 78.5407 18.1797 78.1422 18.3828C77.7438 18.5859 77.5485 18.875 77.5563 19.25C77.5485 19.5156 77.6618 19.7617 77.8961 19.9883C78.1383 20.2148 78.6032 20.3906 79.2907 20.5156L82.9469 21.1719C84.7907 21.5078 86.1618 22.0742 87.0602 22.8711C87.9664 23.6602 88.4235 24.7187 88.4313 26.0469C88.4235 27.3281 88.0407 28.4414 87.2829 29.3867C86.5329 30.3242 85.5055 31.0508 84.2008 31.5664C82.9039 32.0742 81.4235 32.3281 79.7594 32.3281C77.0094 32.3281 74.8571 31.7656 73.3024 30.6406C71.7555 29.5156 70.8922 28.0312 70.7125 26.1875H77.1344C77.2204 26.7578 77.5016 27.1992 77.9782 27.5117C78.4625 27.8164 79.0719 27.9687 79.8063 27.9687C80.4 27.9687 80.8883 27.8672 81.2711 27.6641C81.6618 27.4609 81.861 27.1719 81.8688 26.7969C81.861 26.4531 81.6891 26.1797 81.3532 25.9766C81.025 25.7734 80.5094 25.6094 79.8063 25.4844L76.6188 24.9219C74.7829 24.6016 73.4079 23.9922 72.4938 23.0937C71.5797 22.1953 71.1266 21.0391 71.1344 19.625C71.1266 18.375 71.4547 17.3164 72.1188 16.4492C72.7907 15.5742 73.7477 14.9102 74.9899 14.457C76.2399 13.9961 77.7204 13.7656 79.4313 13.7656C82.0329 13.7656 84.0836 14.3047 85.5836 15.3828C87.0914 16.4609 87.8844 17.9531 87.9625 19.8594Z" fill="url(#paint0_linear_913_6041)"/>
<path d="M86.3906 13.25V8H107.25V13.25H100.031V32H93.6093V13.25H86.3906ZM111.042 32.2813C109.894 32.2813 108.878 32.0938 107.995 31.7187C107.12 31.3359 106.433 30.7578 105.933 29.9844C105.433 29.2109 105.183 28.2266 105.183 27.0312C105.183 26.0469 105.351 25.207 105.687 24.5117C106.023 23.8086 106.491 23.2344 107.093 22.7891C107.695 22.3437 108.394 22.0039 109.191 21.7695C109.995 21.5352 110.863 21.3828 111.792 21.3125C112.8 21.2344 113.609 21.1406 114.218 21.0312C114.835 20.9141 115.281 20.7539 115.554 20.5508C115.827 20.3398 115.964 20.0625 115.964 19.7187V19.6719C115.964 19.2031 115.784 18.8437 115.425 18.5938C115.066 18.3437 114.605 18.2187 114.042 18.2187C113.425 18.2187 112.921 18.3555 112.531 18.6289C112.148 18.8945 111.917 19.3047 111.839 19.8594H105.886C105.964 18.7656 106.312 17.7578 106.929 16.8359C107.554 15.9062 108.464 15.1641 109.659 14.6094C110.855 14.0469 112.347 13.7656 114.136 13.7656C115.425 13.7656 116.581 13.918 117.605 14.2227C118.628 14.5195 119.499 14.9375 120.218 15.4766C120.937 16.0078 121.484 16.6328 121.859 17.3516C122.241 18.0625 122.433 18.8359 122.433 19.6719V32H116.386V29.4687H116.245C115.886 30.1406 115.449 30.6836 114.933 31.0977C114.425 31.5117 113.843 31.8125 113.187 32C112.538 32.1875 111.824 32.2813 111.042 32.2813ZM113.152 28.2031C113.644 28.2031 114.105 28.1016 114.534 27.8984C114.972 27.6953 115.327 27.4023 115.601 27.0195C115.874 26.6367 116.011 26.1719 116.011 25.625V24.125C115.839 24.1953 115.656 24.2617 115.46 24.3242C115.273 24.3867 115.07 24.4453 114.851 24.5C114.64 24.5547 114.413 24.6055 114.171 24.6523C113.937 24.6992 113.691 24.7422 113.433 24.7812C112.933 24.8594 112.523 24.9883 112.202 25.168C111.89 25.3398 111.656 25.5547 111.499 25.8125C111.351 26.0625 111.277 26.3437 111.277 26.6562C111.277 27.1562 111.452 27.5391 111.804 27.8047C112.156 28.0703 112.605 28.2031 113.152 28.2031ZM124.204 32V14H130.485V17.4219H130.672C131.001 16.1562 131.52 15.2305 132.231 14.6445C132.95 14.0586 133.79 13.7656 134.751 13.7656C135.032 13.7656 135.309 13.7891 135.583 13.8359C135.864 13.875 136.133 13.9336 136.391 14.0117V19.5313C136.071 19.4219 135.676 19.3398 135.208 19.2852C134.739 19.2305 134.337 19.2031 134.001 19.2031C133.368 19.2031 132.797 19.3477 132.29 19.6367C131.79 19.918 131.395 20.3164 131.106 20.832C130.817 21.3398 130.672 21.9375 130.672 22.625V32H124.204ZM144.786 32.3281C142.864 32.3281 141.208 31.9609 139.817 31.2266C138.434 30.4844 137.368 29.4219 136.618 28.0391C135.876 26.6484 135.505 24.9844 135.505 23.0469C135.505 21.1875 135.88 19.5625 136.63 18.1719C137.38 16.7812 138.438 15.6992 139.806 14.9258C141.173 14.1523 142.786 13.7656 144.645 13.7656C146.005 13.7656 147.235 13.9766 148.337 14.3984C149.438 14.8203 150.38 15.4336 151.161 16.2383C151.942 17.0352 152.544 18.0039 152.966 19.1445C153.388 20.2852 153.599 21.5703 153.599 23V24.5H137.52V20.9375H147.645C147.638 20.4219 147.505 19.9687 147.247 19.5781C146.997 19.1797 146.657 18.8711 146.227 18.6523C145.806 18.4258 145.325 18.3125 144.786 18.3125C144.263 18.3125 143.782 18.4258 143.345 18.6523C142.907 18.8711 142.556 19.1758 142.29 19.5664C142.032 19.957 141.895 20.4141 141.88 20.9375V24.7812C141.88 25.3594 142.001 25.875 142.243 26.3281C142.485 26.7813 142.833 27.1367 143.286 27.3945C143.739 27.6523 144.286 27.7813 144.927 27.7813C145.372 27.7813 145.778 27.7187 146.145 27.5937C146.52 27.4687 146.841 27.2891 147.106 27.0547C147.372 26.8125 147.567 26.5234 147.692 26.1875H153.599C153.395 27.4375 152.915 28.5234 152.157 29.4453C151.399 30.3594 150.395 31.0703 149.145 31.5781C147.903 32.0781 146.45 32.3281 144.786 32.3281ZM159.934 32.2813C158.785 32.2813 157.77 32.0938 156.887 31.7187C156.012 31.3359 155.324 30.7578 154.824 29.9844C154.324 29.2109 154.074 28.2266 154.074 27.0312C154.074 26.0469 154.242 25.207 154.578 24.5117C154.914 23.8086 155.383 23.2344 155.985 22.7891C156.586 22.3437 157.285 22.0039 158.082 21.7695C158.887 21.5352 159.754 21.3828 160.684 21.3125C161.692 21.2344 162.5 21.1406 163.11 21.0312C163.727 20.9141 164.172 20.7539 164.446 20.5508C164.719 20.3398 164.856 20.0625 164.856 19.7187V19.6719C164.856 19.2031 164.676 18.8437 164.317 18.5938C163.957 18.3437 163.496 18.2187 162.934 18.2187C162.317 18.2187 161.813 18.3555 161.422 18.6289C161.039 18.8945 160.809 19.3047 160.731 19.8594H154.778C154.856 18.7656 155.203 17.7578 155.821 16.8359C156.446 15.9062 157.356 15.1641 158.551 14.6094C159.746 14.0469 161.239 13.7656 163.028 13.7656C164.317 13.7656 165.473 13.918 166.496 14.2227C167.52 14.5195 168.391 14.9375 169.11 15.4766C169.828 16.0078 170.375 16.6328 170.75 17.3516C171.133 18.0625 171.324 18.8359 171.324 19.6719V32H165.278V29.4687H165.137C164.778 30.1406 164.34 30.6836 163.824 31.0977C163.317 31.5117 162.735 31.8125 162.078 32C161.43 32.1875 160.715 32.2813 159.934 32.2813ZM162.043 28.2031C162.535 28.2031 162.996 28.1016 163.426 27.8984C163.864 27.6953 164.219 27.4023 164.492 27.0195C164.766 26.6367 164.903 26.1719 164.903 25.625V24.125C164.731 24.1953 164.547 24.2617 164.352 24.3242C164.164 24.3867 163.961 24.4453 163.742 24.5C163.531 24.5547 163.305 24.6055 163.063 24.6523C162.828 24.6992 162.582 24.7422 162.324 24.7812C161.824 24.8594 161.414 24.9883 161.094 25.168C160.781 25.3398 160.547 25.5547 160.391 25.8125C160.242 26.0625 160.168 26.3437 160.168 26.6562C160.168 27.1562 160.344 27.5391 160.696 27.8047C161.047 28.0703 161.496 28.2031 162.043 28.2031ZM189.548 19.8594H183.595C183.564 19.4922 183.435 19.1758 183.209 18.9102C182.982 18.6445 182.689 18.4414 182.33 18.3008C181.978 18.1523 181.587 18.0781 181.158 18.0781C180.603 18.0781 180.127 18.1797 179.728 18.3828C179.33 18.5859 179.134 18.875 179.142 19.25C179.134 19.5156 179.248 19.7617 179.482 19.9883C179.724 20.2148 180.189 20.3906 180.877 20.5156L184.533 21.1719C186.377 21.5078 187.748 22.0742 188.646 22.8711C189.552 23.6602 190.009 24.7187 190.017 26.0469C190.009 27.3281 189.627 28.4414 188.869 29.3867C188.119 30.3242 187.091 31.0508 185.787 31.5664C184.49 32.0742 183.009 32.3281 181.345 32.3281C178.595 32.3281 176.443 31.7656 174.888 30.6406C173.341 29.5156 172.478 28.0312 172.298 26.1875H178.72C178.806 26.7578 179.087 27.1992 179.564 27.5117C180.048 27.8164 180.658 27.9687 181.392 27.9687C181.986 27.9687 182.474 27.8672 182.857 27.6641C183.248 27.4609 183.447 27.1719 183.455 26.7969C183.447 26.4531 183.275 26.1797 182.939 25.9766C182.611 25.7734 182.095 25.6094 181.392 25.4844L178.205 24.9219C176.369 24.6016 174.994 23.9922 174.08 23.0937C173.166 22.1953 172.712 21.0391 172.72 19.625C172.712 18.375 173.041 17.3164 173.705 16.4492C174.377 15.5742 175.334 14.9102 176.576 14.457C177.826 13.9961 179.306 13.7656 181.017 13.7656C183.619 13.7656 185.669 14.3047 187.169 15.3828C188.677 16.4609 189.47 17.9531 189.548 19.8594Z" fill="url(#paint1_linear_913_6041)"/>
<defs>
<linearGradient id="paint0_linear_913_6041" x1="32" y1="20" x2="191" y2="20" gradientUnits="userSpaceOnUse">
<stop stop-color="#FCC134"/>
<stop offset="1" stop-color="#FFD704"/>
</linearGradient>
<linearGradient id="paint1_linear_913_6041" x1="32" y1="20" x2="191" y2="20" gradientUnits="userSpaceOnUse">
<stop stop-color="#FF5C00"/>
<stop offset="1" stop-color="#FFD704"/>
</linearGradient>
<clipPath id="clip0_913_6041">
<rect width="24" height="24" fill="white" transform="translate(0 8)"/>
</clipPath>
</defs>
</svg>
